<svg width="121" height="132" viewBox="0 0 121 132" fill="none" xmlns="http://www.w3.org/2000/svg">
<path d="M60.5 132C93.6371 132 120.5 105.137 120.5 72C120.5 38.8629 93.6371 12 60.5 12C27.3629 12 0.5 38.8629 0.5 72C0.5 105.137 27.3629 132 60.5 132Z" fill="url(#paint0_linear_18_4023)"/>
<path fill-rule="evenodd" clip-rule="evenodd" d="M120.463 74.1216C100.422 72.6452 79.4017 73.1585 57.4028 75.6615C35.4648 78.1576 17.3062 82.5863 2.92691 88.9475C1.34742 83.5732 0.5 77.8855 0.5 72C0.5 67.1484 1.07582 62.4313 2.16285 57.9134C6.85308 54.5942 13.2834 56.5623 18.241 61.3C25.8999 68.6191 31.9314 72.2152 42.7881 61.3C53.6448 50.3847 60.1346 52.9091 66.6017 61.3C73.0687 69.6909 79.1641 67.5625 92.7739 65.5239C100.937 64.3011 110.179 66.5743 120.499 72.3433C120.496 72.9382 120.484 73.531 120.463 74.1216V74.1216Z" fill="url(#paint1_linear_18_4023)"/>
<path fill-rule="evenodd" clip-rule="evenodd" d="M0.51001 73.1088C6.02161 66.455 12.7509 64.5755 20.6978 67.4703C36.796 73.3344 38.198 72.141 45.0132 67.4703C51.8284 62.7997 51.5372 59.7724 60.5 65.1623C69.4628 70.5522 76.4242 73.4913 84.0866 70.8518C91.7491 68.2123 101.072 63.2552 109.96 73.2221C89.5853 72.5395 71.9145 73.4941 56.948 76.0858C39.8943 79.039 15.6696 89.8403 5.00934 94.8622C2.23613 88.1384 0.649408 80.8003 0.51001 73.1088Z" fill="url(#paint2_linear_18_4023)"/>
<path fill-rule="evenodd" clip-rule="evenodd" d="M2.92798 88.9513C31.7286 74.6199 70.9099 69.588 120.472 73.8555C119.491 106.134 93.0163 132 60.5 132C33.2498 132 10.2426 113.834 2.92798 88.9513Z" fill="url(#paint3_linear_18_4023)"/>
<path fill-rule="evenodd" clip-rule="evenodd" d="M2.88367 88.7998C27.4114 75.8515 60.7071 70.5156 102.771 72.7921C96.3704 72.7921 71.9298 72.7921 56.9066 80.6487C41.8834 88.5053 45.2797 93.5181 55.9533 97.9018C66.627 102.285 60.0846 109.186 55.9533 109.186C53.1992 109.186 48.2083 108.324 40.9809 106.598C33.0301 105.172 24.101 106.358 14.1938 110.157C9.08106 103.959 5.18844 96.7176 2.88367 88.7998Z" fill="url(#paint4_linear_18_4023)"/>
<path fill-rule="evenodd" clip-rule="evenodd" d="M13.6039 109.43C26.8657 103.777 39.2263 103.138 50.6857 107.514C74.6825 116.677 86.8291 99.6508 92.9158 85.538C97.6019 74.6727 113.444 72.9994 120.487 73.2689C119.812 105.82 93.2131 132 60.5 132C41.52 132 24.5984 123.187 13.6039 109.43H13.6039Z" fill="url(#paint5_linear_18_4023)"/>
<path fill-rule="evenodd" clip-rule="evenodd" d="M49.9408 131.074C49.8546 131.059 49.7684 131.043 49.6824 131.027V131.016C49.7689 131.036 49.855 131.055 49.9408 131.074H49.9408Z" fill="url(#paint6_linear_18_4023)"/>
<path fill-rule="evenodd" clip-rule="evenodd" d="M57.7582 131.938C60.5688 131.812 62.643 131.037 63.9808 129.613C67.5786 125.784 58.7628 116.684 72.4526 115.93C86.1425 115.176 103.284 116.864 97.9745 105.589C92.6685 94.3211 99.1321 73.366 120.485 73.3414C119.772 105.859 93.1887 132 60.4999 132C59.5811 132 58.667 131.979 57.7582 131.938Z" fill="url(#paint7_linear_18_4023)"/>
<path fill-rule="evenodd" clip-rule="evenodd" d="M55.7688 54.231C57.2235 49.8949 59.3334 45.969 60.5 42.8043C63.3489 35.0753 69.9502 33.7873 69.9502 27.1569C69.9502 20.5264 75.697 19.1765 78.7939 13.4C81.8908 7.62346 84.7743 13.9762 88.13 19.1765C91.4857 24.3767 95.1769 23.8199 95.1769 33.7873C95.1769 43.7546 102.119 43.8624 106.235 52.9158C108.487 57.8675 111.667 63.5995 115.775 70.1115C107.338 66.1533 99.6712 64.6907 92.7739 65.7239C79.164 67.7625 73.0687 69.8908 66.6016 61.5C63.2065 57.0948 59.8051 54.3066 55.7688 54.231Z" fill="url(#paint8_linear_18_4023)"/>
<path fill-rule="evenodd" clip-rule="evenodd" d="M88.13 19.1765C91.4857 24.3767 95.1769 23.8199 95.1769 33.7873C95.1769 43.7546 102.119 43.8624 106.235 52.9158C108.487 57.8675 111.667 63.5994 115.775 70.1115C107.338 66.1533 99.6712 64.6907 92.7739 65.7239C79.164 67.7625 75.4999 57.6414 80.1438 53.6508C84.7876 49.6602 93.6104 43.3297 89.6744 39.0795C85.7384 34.8292 86.5856 31.5193 88.13 27.928C88.7794 26.4086 89.104 24.9439 89.104 23.5339C89.104 21.4187 88.13 19.1765 88.13 19.1765Z" fill="url(#paint9_linear_18_4023)"/>
<path fill-rule="evenodd" clip-rule="evenodd" d="M93.8527 65.5834C93.491 65.6235 93.1315 65.6704 92.774 65.7239C79.1641 67.7625 73.0688 69.8909 66.6017 61.5C60.1347 53.1091 53.6448 50.5847 42.7881 61.5C31.9314 72.4152 25.8999 68.8191 18.241 61.5C15.8599 59.2244 13.139 57.5878 10.4343 56.8691C11.5987 54.6662 12.7335 52.3514 13.3222 50.001C14.8294 43.9832 14.5233 40.4398 19.3633 37.9781C24.2033 35.5164 25.6667 33.281 25.6667 26.2119C25.6667 19.1428 34.2848 19.3128 33.2597 12.4858C32.2346 5.65893 36.9105 5.82186 41.2415 1.56159C45.5725 -2.69867 50.5758 9.12699 54.5228 12.4858C58.4699 15.8447 55.2814 18.9356 58.8913 21.5734C62.5011 24.2111 62.5775 24.0789 63.867 29.8295C64.7267 33.6632 66.8978 36.3794 70.3804 37.9781C72.0748 38.7065 74.7388 39.0708 78.3725 39.0708C83.823 39.0708 82.8123 44.6801 82.8123 50.001C82.8123 55.3219 88.1456 57.7842 92.1518 62.7726C92.8947 63.6976 93.4616 64.6345 93.8527 65.5834H93.8527Z" fill="url(#paint10_linear_18_4023)"/>
<path fill-rule="evenodd" clip-rule="evenodd" d="M37.3623 7.84112C34.1946 11.4592 44.3335 16.3752 39.4887 24.434C34.644 32.4927 51.6073 37.9781 42.3818 45.9559C36.2315 51.2744 36.367 56.4557 42.7881 61.5C31.9314 72.4152 25.8999 68.8191 18.241 61.5C15.8599 59.2244 13.139 57.5878 10.4343 56.8691C11.5987 54.6662 12.7335 52.3514 13.3222 50.001C14.8294 43.9832 14.5233 40.4398 19.3633 37.9781C24.2033 35.5164 25.6667 33.2809 25.6667 26.2119C25.6667 19.1428 34.2848 19.3128 33.2597 12.4858C32.2346 5.65892 36.9106 5.82185 41.2415 1.56158C40.7672 3.3359 39.4741 5.42908 37.3623 7.84112Z" fill="url(#paint11_linear_18_4023)"/>
<path fill-rule="evenodd" clip-rule="evenodd" d="M26.1278 72.9486C22.1748 73.7398 19.9828 72.8485 19.552 70.2746C18.9056 66.4137 24.5558 64.3558 21.7307 60.3405C18.9056 56.3251 24.0011 52.979 23.4376 49.1676C22.8741 45.3563 24.643 43.6262 28.4038 51.9546C32.1645 60.2831 26.4264 59.4115 29.9558 65.4145C32.3087 69.4166 31.0327 71.9279 26.1278 72.9486Z" fill="url(#paint12_linear_18_4023)"/>
<path fill-rule="evenodd" clip-rule="evenodd" d="M25.3743 55.5435C26.7666 57.9489 25.5821 59.8774 25.1489 61.3156C24.7157 62.7537 25.0216 65.1001 25.3743 66.2212C25.727 67.3422 25.295 69.91 25.1489 70.8627C25.0028 71.8153 25.4622 73.072 25.1489 73.1151C21.8115 73.5744 19.9459 72.6276 19.552 70.2746C18.9056 66.4137 24.5558 64.3558 21.7307 60.3404C18.9056 56.3251 24.0011 52.979 23.4376 49.1676C23.8005 51.8146 24.4461 53.9399 25.3743 55.5435Z" fill="url(#paint13_linear_18_4023)"/>
<path fill-rule="evenodd" clip-rule="evenodd" d="M23.4579 80.33C24.7533 74.7827 24.939 71.4333 24.0152 70.2817C22.6294 68.5544 22.4352 66.8469 23.4579 68.3242C24.4806 69.8015 25.55 70.2389 24.8669 66.089C24.1837 61.939 26.3117 57.508 25.9485 59.179C25.5853 60.8501 24.7465 63.6102 25.6182 66.089C26.49 68.5677 24.3228 70.8568 27.2739 69.7116C30.225 68.5664 28.3457 69.7257 26.9705 70.8387C25.5952 71.9517 25.5688 71.9613 26.13 74.6913C26.5042 76.5113 26.6241 78.0871 26.49 79.4188L23.4579 80.33Z" fill="url(#paint14_linear_18_4023)"/>
<path fill-rule="evenodd" clip-rule="evenodd" d="M50.1281 70.0345C47.6064 70.5406 46.208 69.9706 45.9332 68.3244C45.5209 65.8553 49.1253 64.5392 47.3231 61.9712C45.5209 59.4033 48.7714 57.2633 48.4119 54.8258C48.0524 52.3883 49.1809 51.2819 51.58 56.6082C53.9791 61.9345 50.3186 61.3771 52.5701 65.2162C54.0711 67.7757 53.2571 69.3818 50.1281 70.0345Z" fill="url(#paint15_linear_18_4023)"/>
<path fill-rule="evenodd" clip-rule="evenodd" d="M49.6474 58.9034C50.5356 60.4418 49.78 61.6751 49.5036 62.5948C49.2273 63.5146 49.4225 65.0152 49.6474 65.7322C49.8724 66.4491 49.5968 68.0913 49.5036 68.7006C49.4104 69.3098 49.7035 70.1135 49.5036 70.1411C47.3746 70.4348 46.1844 69.8293 45.9332 68.3245C45.5209 65.8553 49.1253 64.5392 47.3231 61.9712C45.5209 59.4033 48.7714 57.2633 48.4119 54.8258C48.6435 56.5187 49.0553 57.8779 49.6474 58.9034Z" fill="url(#paint16_linear_18_4023)"/>
<path fill-rule="evenodd" clip-rule="evenodd" d="M48.4249 74.7552C49.2512 71.2075 49.3697 69.0654 48.7804 68.329C47.8964 67.2243 47.7725 66.1323 48.4249 67.0771C49.0773 68.0219 49.7595 68.3016 49.3237 65.6476C48.8879 62.9935 50.2454 60.1597 50.0137 61.2284C49.782 62.2971 49.2469 64.0623 49.803 65.6476C50.3591 67.2328 48.9766 68.6968 50.8592 67.9644C52.7418 67.232 51.543 67.9733 50.6656 68.6852C49.7883 69.397 49.7715 69.4031 50.1295 71.149C50.3682 72.313 50.4501 73.4197 50.3753 74.4691L48.4249 74.7552Z" fill="url(#paint17_linear_18_4023)"/>
<path d="M45.3336 75.1101L45.5113 75.2019C40.9015 84.1223 37.8411 89.6819 36.3267 91.8862L36.1619 91.7729C37.6696 89.5783 40.728 84.0222 45.3336 75.1101Z" fill="#123874"/>
<path fill-rule="evenodd" clip-rule="evenodd" d="M66.5747 88.8728L68.9224 89.5628C66.9156 90.4815 65.4936 91.4422 64.6565 92.4451C60.3393 93.0804 56.6479 93.9544 53.5823 95.0669C46.1551 94.3602 41.0279 92.9038 38.2007 90.6976L45.2028 81.1658L66.5747 88.8728Z" fill="url(#paint18_linear_18_4023)"/>
<path fill-rule="evenodd" clip-rule="evenodd" d="M64.2124 91.4545C66.015 90.1861 67.5932 89.5519 68.9471 89.5519C65.5139 85.5636 62.5026 81.1797 59.9134 76.4003L51.66 80.1704L58.2149 90.6375L61.1516 89.9039H63.2277L64.2124 91.4545Z" fill="url(#paint19_linear_18_4023)"/>
<path fill-rule="evenodd" clip-rule="evenodd" d="M38.1991 90.591C41.8776 92.5609 46.9683 93.7471 53.4712 94.1495C56.6589 92.8076 59.4769 92.1367 61.9252 92.1367C60.7122 88.6973 60.034 83.4253 59.8906 76.3207C56.4032 76.4487 53.5777 76.4487 51.4141 76.3207C49.2505 76.1927 47.2417 75.794 45.3876 75.1244C44.1766 78.6957 42.9707 81.6036 41.7697 83.8483C40.5687 86.093 39.3785 88.3405 38.1991 90.591Z" fill="url(#paint20_linear_18_4023)"/>
<path fill-rule="evenodd" clip-rule="evenodd" d="M38.199 90.591C41.8774 92.5609 46.9681 93.7471 53.4711 94.1495C56.0693 88.8118 58.2091 82.8689 59.8905 76.3207C56.4031 76.4487 53.5776 76.4487 51.414 76.3207C49.2504 76.1927 47.2416 75.794 45.3875 75.1244C44.1765 78.6957 42.9705 81.6036 41.7696 83.8483C40.5686 86.093 39.3784 88.3405 38.199 90.591Z" fill="url(#paint21_linear_18_4023)"/>
<path fill-rule="evenodd" clip-rule="evenodd" d="M64.2123 91.4545C66.0149 90.1861 67.5932 89.5519 68.947 89.5519C65.5138 85.5636 62.5026 81.1797 59.9133 76.4003C60.3979 80.0076 60.8419 82.6327 61.2451 84.2756C61.5784 85.6335 62.2392 87.5096 63.2277 89.9039L64.2123 91.4545Z" fill="url(#paint22_linear_18_4023)"/>
<path d="M54.3881 96.3799L54.2078 96.2935C55.4936 93.6097 57.3689 87.0127 59.8295 76.5116L59.8819 76.288L60.0099 76.4787C64.0847 82.5524 67.9386 87.0226 71.57 89.8889L71.4461 90.0459C67.8343 87.195 64.0101 82.7733 59.9718 76.7806C57.5334 87.1672 55.6735 93.6972 54.3881 96.3799Z" fill="#123874"/>
<path fill-rule="evenodd" clip-rule="evenodd" d="M72.0194 89.336L71.4495 90.0459L71.4088 89.9368L71.7347 89.2016L72.0194 89.336Z" fill="#123874"/>
<path fill-rule="evenodd" clip-rule="evenodd" d="M53.6265 96.1008L53.8178 95.8226L54.4261 96.2699L54.3855 96.3791L53.6265 96.1008Z" fill="#123874"/>
<path fill-rule="evenodd" clip-rule="evenodd" d="M35.587 91.5292L35.7697 91.2529L36.3608 91.7822L36.3271 91.8844L35.587 91.5292Z" fill="#123874"/>
<defs>
<linearGradient id="paint0_linear_18_4023" x1="57.337" y1="61.5152" x2="76.6639" y2="13.8848" gradientUnits="userSpaceOnUse">
<stop stop-color="#D5EDF3"/>
<stop offset="1" stop-color="#A2DBD8"/>
</linearGradient>
<linearGradient id="paint1_linear_18_4023" x1="79.9038" y1="70.3865" x2="48.5315" y2="95.7039" gradientUnits="userSpaceOnUse">
<stop stop-color="#2FAC6D"/>
<stop offset="1" stop-color="#007846"/>
</linearGradient>
<linearGradient id="paint2_linear_18_4023" x1="108.05" y1="77.1352" x2="33.8673" y2="103.194" gradientUnits="userSpaceOnUse">
<stop stop-color="#2FAC6D"/>
<stop offset="1" stop-color="#007846"/>
</linearGradient>
<linearGradient id="paint3_linear_18_4023" x1="116.693" y1="94.5268" x2="51.6384" y2="128.161" gradientUnits="userSpaceOnUse">
<stop stop-color="#68C179"/>
<stop offset="1" stop-color="#25A062"/>
</linearGradient>
<linearGradient id="paint4_linear_18_4023" x1="94.4244" y1="88.7316" x2="56.7445" y2="106.581" gradientUnits="userSpaceOnUse">
<stop stop-color="#68C179"/>
<stop offset="1" stop-color="#25A062"/>
</linearGradient>
<linearGradient id="paint5_linear_18_4023" x1="70.2285" y1="92.4019" x2="65.9267" y2="114.409" gradientUnits="userSpaceOnUse">
<stop stop-color="#77EBFF"/>
<stop offset="1" stop-color="#4D86DE"/>
</linearGradient>
<linearGradient id="paint6_linear_18_4023" x1="49.9051" y1="131.031" x2="49.8841" y2="131.119" gradientUnits="userSpaceOnUse">
<stop stop-color="#91F6FF"/>
<stop offset="1" stop-color="#4D86DE"/>
</linearGradient>
<linearGradient id="paint7_linear_18_4023" x1="111.835" y1="82.5937" x2="65.907" y2="149.544" gradientUnits="userSpaceOnUse">
<stop stop-color="#91F6FF"/>
<stop offset="1" stop-color="#4D86DE"/>
</linearGradient>
<linearGradient id="paint8_linear_18_4023" x1="87.5283" y1="21.0879" x2="71.1604" y2="69.303" gradientUnits="userSpaceOnUse">
<stop stop-color="#30A0DE"/>
<stop offset="1" stop-color="#194383"/>
</linearGradient>
<linearGradient id="paint9_linear_18_4023" x1="89.67" y1="89.9217" x2="119.458" y2="-23.4177" gradientUnits="userSpaceOnUse">
<stop stop-color="#30A0DE"/>
<stop offset="1" stop-color="#194383"/>
</linearGradient>
<linearGradient id="paint10_linear_18_4023" x1="54.5848" y1="19.2274" x2="42.8353" y2="66.0875" gradientUnits="userSpaceOnUse">
<stop stop-color="#30A0DE"/>
<stop offset="1" stop-color="#194383"/>
</linearGradient>
<linearGradient id="paint11_linear_18_4023" x1="29.643" y1="20.1791" x2="17.0899" y2="78.1443" gradientUnits="userSpaceOnUse">
<stop stop-color="#30A0DE"/>
<stop offset="1" stop-color="#194383"/>
</linearGradient>
<linearGradient id="paint12_linear_18_4023" x1="25.3" y1="46" x2="25.3" y2="66.7031" gradientUnits="userSpaceOnUse">
<stop stop-color="#68C179"/>
<stop offset="1" stop-color="#1FA063"/>
</linearGradient>
<linearGradient id="paint13_linear_18_4023" x1="22.8244" y1="50.8236" x2="21.1183" y2="73.1067" gradientUnits="userSpaceOnUse">
<stop stop-color="#68C179"/>
<stop offset="1" stop-color="#1FA063"/>
</linearGradient>
<linearGradient id="paint14_linear_18_4023" x1="25.7806" y1="83.5299" x2="26.3482" y2="67.2972" gradientUnits="userSpaceOnUse">
<stop stop-color="#006239"/>
<stop offset="1" stop-color="#007846"/>
</linearGradient>
<linearGradient id="paint15_linear_18_4023" x1="49.6" y1="52.8" x2="49.6" y2="66.0404" gradientUnits="userSpaceOnUse">
<stop stop-color="#68C179"/>
<stop offset="1" stop-color="#1FA063"/>
</linearGradient>
<linearGradient id="paint16_linear_18_4023" x1="48.0206" y1="55.8848" x2="46.9322" y2="70.136" gradientUnits="userSpaceOnUse">
<stop stop-color="#68C179"/>
<stop offset="1" stop-color="#1FA063"/>
</linearGradient>
<linearGradient id="paint17_linear_18_4023" x1="49.8599" y1="83.3675" x2="50.818" y2="67.931" gradientUnits="userSpaceOnUse">
<stop stop-color="#006239"/>
<stop offset="1" stop-color="#008D52"/>
</linearGradient>
<linearGradient id="paint18_linear_18_4023" x1="101.245" y1="87.313" x2="49.1511" y2="96.9199" gradientUnits="userSpaceOnUse">
<stop stop-color="#68C179"/>
<stop offset="1" stop-color="#139553"/>
</linearGradient>
<linearGradient id="paint19_linear_18_4023" x1="60.3036" y1="78.2192" x2="61.1643" y2="85.1626" gradientUnits="userSpaceOnUse">
<stop stop-color="#F9BB49"/>
<stop offset="1" stop-color="#CD6709"/>
</linearGradient>
<linearGradient id="paint20_linear_18_4023" x1="51.9309" y1="76.1679" x2="56.2577" y2="94.3793" gradientUnits="userSpaceOnUse">
<stop stop-color="#F9BB49"/>
<stop offset="1" stop-color="#F08523"/>
</linearGradient>
<linearGradient id="paint21_linear_18_4023" x1="49.0447" y1="77.3193" x2="47.7798" y2="87.7125" gradientUnits="userSpaceOnUse">
<stop stop-color="#F9BB49"/>
<stop offset="1" stop-color="#F08523"/>
</linearGradient>
<linearGradient id="paint22_linear_18_4023" x1="64.4302" y1="76.4003" x2="63.7501" y2="87.0165" gradientUnits="userSpaceOnUse">
<stop stop-color="#F9BB49"/>
<stop offset="1" stop-color="#F08523"/>
</linearGradient>
</defs>
</svg>
