<svg width="93" height="84" viewBox="0 0 93 84" fill="none" xmlns="http://www.w3.org/2000/svg">
<path d="M46 84C69.196 84 88 65.196 88 42C88 18.804 69.196 0 46 0C22.804 0 4 18.804 4 42C4 65.196 22.804 84 46 84Z" fill="url(#paint0_linear_18_4512)"/>
<path fill-rule="evenodd" clip-rule="evenodd" d="M4.33667 47.3438C13.1229 44.9244 23.0945 45.3868 34.2516 48.7312C53.6726 54.5526 67.9741 37.7527 84.3355 48.7312C85.3017 49.3794 86.2189 50.0521 87.0873 50.7492C83.0621 69.7458 66.1956 84 45.9999 84C24.6143 84 6.96176 68.0165 4.33667 47.3438H4.33667Z" fill="url(#paint1_linear_18_4512)"/>
<path fill-rule="evenodd" clip-rule="evenodd" d="M6.54004 56.418C13.8406 51.6039 21.2588 50.4618 28.7944 52.9917C40.4761 56.9136 46.9152 47.7031 62.7645 56.9136C73.7928 63.3225 79.6498 55.311 85.551 56.1659C79.7387 72.3919 64.2249 84 45.9999 84C27.8694 84 12.4221 72.512 6.54004 56.418L6.54004 56.418Z" fill="url(#paint2_linear_18_4512)"/>
<path fill-rule="evenodd" clip-rule="evenodd" d="M5.89404 54.5084C28.3187 51.6432 27.0466 60.4163 50.6947 63.4485C65.4373 65.3388 77.449 60.709 84.4923 58.8296C78.0044 73.6474 63.2112 84 46 84C27.1602 84 11.2176 71.5955 5.89404 54.5084Z" fill="url(#paint3_linear_18_4512)"/>
<path fill-rule="evenodd" clip-rule="evenodd" d="M19.513 74.5969C18.6917 73.9287 17.8961 73.2301 17.1279 72.5028C19.5391 71.4604 27.0713 70.7 35.9899 70.7C46.8533 70.7 55.6599 71.8283 55.6599 73.22C55.6599 74.6118 46.8533 75.74 35.9899 75.74C29.0926 75.74 23.0245 75.2852 19.513 74.5969Z" fill="url(#paint4_linear_18_4512)"/>
<path opacity="0.2" d="M78.7599 30.1C86.4146 30.1 92.6199 23.8947 92.6199 16.24C92.6199 8.58534 86.4146 2.38 78.7599 2.38C71.1052 2.38 64.8999 8.58534 64.8999 16.24C64.8999 23.8947 71.1052 30.1 78.7599 30.1Z" fill="url(#paint5_linear_18_4512)"/>
<path fill-rule="evenodd" clip-rule="evenodd" d="M4.38696 36.2748C7.17941 15.7872 24.7461 0 46 0C54.2698 0 61.9813 2.39009 68.4815 6.51718C64.2969 8.83114 61.316 12.0495 59.539 16.1722C55.3598 25.8677 47.8483 30.9792 33.6258 27.7573C22.2484 25.18 11.0006 28.804 4.38696 36.2748Z" fill="url(#paint6_linear_18_4512)"/>
<path fill-rule="evenodd" clip-rule="evenodd" d="M0.525146 34.4287C0.995522 35.0216 1.68362 35.4978 2.58944 35.8574C3.49526 36.217 4.12393 36.217 4.47546 35.8574C4.4886 36.4967 4.85095 36.9602 5.56251 37.2479C6.62986 37.6795 16.0215 40.9664 17.5206 39.6038C17.5654 40.2165 18.4419 40.7117 20.1502 41.0895C22.7126 41.6561 33.7187 43.9289 34.5172 42.5092C34.8456 43.2367 35.5755 43.6665 36.7069 43.7988C38.4039 43.9973 47.0264 45.0838 48.0189 43.6093C48.2915 43.9994 48.7381 44.1945 49.3587 44.1945C50.2896 44.1945 52.276 44.1836 52.6718 43.7988C52.9357 43.5423 50.5642 41.4085 45.5572 37.3973L33.0695 31.5562L11.622 28.8566L0.525146 34.4287Z" fill="url(#paint7_linear_18_4512)"/>
<path fill-rule="evenodd" clip-rule="evenodd" d="M28.6823 22.9319C28.7262 22.6258 29.01 22.4132 29.3161 22.4571C29.6223 22.501 29.8348 22.7848 29.7909 23.091L29.0544 28.2247C29.0105 28.5309 28.7267 28.7434 28.4206 28.6995C28.1144 28.6556 27.9018 28.3718 27.9458 28.0657L28.6823 22.9319ZM26.5677 35.3729C26.621 35.0682 26.9112 34.8645 27.2159 34.9178C27.5205 34.9711 27.7243 35.2613 27.6709 35.566L21.0438 73.4258C20.9905 73.7305 20.7003 73.9342 20.3957 73.8809C20.091 73.8276 19.8873 73.5374 19.9406 73.2327L26.5677 35.3729Z" fill="url(#paint8_linear_18_4512)"/>
<path fill-rule="evenodd" clip-rule="evenodd" d="M0.907856 32.8309C0.401252 33.309 0.147949 33.783 0.147949 34.253C0.147949 34.9581 0.270863 34.881 2.17669 34.881C3.44725 34.881 6.61715 34.8232 11.6864 34.7077C12.6925 34.6715 13.4345 33.9431 13.9124 32.5226C14.1063 34.4687 14.9486 35.5176 16.4394 35.6692C18.6755 35.8967 26.3028 36.1685 31.6365 37.6203C36.9702 39.0721 39.0305 40.522 40.1745 37.162C40.4005 38.5915 41.0946 39.5561 42.2567 40.0558C43.4188 40.5555 46.637 41.7938 51.9114 43.7708C52.3395 43.9853 52.6518 43.9019 52.8485 43.5207C53.1434 42.9489 52.0809 40.8899 50.9362 39.3708C49.7916 37.8517 45.9259 29.6852 34.9193 26.2428C33.841 25.0176 32.4828 24.4049 30.8445 24.4049C28.3871 24.4049 25.6565 22.5055 22.8375 24.0189C18.9157 23.8406 15.4742 24.4497 12.5131 25.8462C9.55194 27.2428 5.68353 29.571 0.907856 32.8309Z" fill="url(#paint9_linear_18_4512)"/>
<path fill-rule="evenodd" clip-rule="evenodd" d="M37.0878 71.6535L33.6334 66.4551C33.5293 66.2985 33.5725 66.0876 33.7297 65.9839C33.8869 65.8803 34.0987 65.9232 34.2028 66.0798L37.6572 71.2783C37.7613 71.4349 37.7182 71.6458 37.5609 71.7494C37.4037 71.8531 37.1919 71.8101 37.0878 71.6535Z" fill="url(#paint10_linear_18_4512)"/>
<path fill-rule="evenodd" clip-rule="evenodd" d="M29.7293 73.7629C29.6025 73.9018 29.3866 73.9121 29.2471 73.7858C29.1075 73.6596 29.0972 73.4445 29.224 73.3056L36.4821 65.3504C36.6089 65.2115 36.8248 65.2012 36.9643 65.3274C37.1039 65.4537 37.1142 65.6687 36.9874 65.8077L29.7293 73.7629Z" fill="url(#paint11_linear_18_4512)"/>
<path fill-rule="evenodd" clip-rule="evenodd" d="M39.3703 65.7479H47.7033C47.0203 67.8931 45.7592 68.9346 43.9203 68.8722C43.9203 68.8722 40.8659 68.8722 34.7571 68.8722L39.3703 65.7479Z" fill="url(#paint12_linear_18_4512)"/>
<path fill-rule="evenodd" clip-rule="evenodd" d="M28.4668 57.2891H38.2138C39.0779 64.0533 40.9801 67.9144 43.9204 68.8721H34.7572C32.7967 68.6354 31.3691 67.4993 30.4744 65.4638C29.5797 63.4283 28.9105 60.7034 28.4668 57.2891Z" fill="url(#paint13_linear_18_4512)"/>
<path fill-rule="evenodd" clip-rule="evenodd" d="M37.8709 57.9169C37.7679 57.7596 37.8125 57.549 37.9704 57.4464C38.1284 57.3439 38.3399 57.3883 38.4429 57.5456L47.556 71.4692C47.659 71.6265 47.6144 71.8372 47.4564 71.9397C47.2985 72.0423 47.087 71.9978 46.984 71.8405L37.8709 57.9169Z" fill="url(#paint14_linear_18_4512)"/>
<path fill-rule="evenodd" clip-rule="evenodd" d="M40.4127 73.8083C40.2859 73.9473 40.07 73.9576 39.9304 73.8313C39.7909 73.705 39.7805 73.49 39.9073 73.351L47.1654 65.3959C47.2922 65.2569 47.5081 65.2466 47.6477 65.3729C47.7872 65.4992 47.7976 65.7142 47.6708 65.8532L40.4127 73.8083Z" fill="url(#paint15_linear_18_4512)"/>
<path opacity="0.2" d="M78.7599 30.1C86.4146 30.1 92.6199 23.8947 92.6199 16.24C92.6199 8.58534 86.4146 2.38 78.7599 2.38C71.1052 2.38 64.8999 8.58534 64.8999 16.24C64.8999 23.8947 71.1052 30.1 78.7599 30.1Z" fill="url(#paint16_linear_18_4512)"/>
<path d="M78.76 26.0401C84.1723 26.0401 88.56 21.6525 88.56 16.2401C88.56 10.8277 84.1723 6.44006 78.76 6.44006C73.3476 6.44006 68.96 10.8277 68.96 16.2401C68.96 21.6525 73.3476 26.0401 78.76 26.0401Z" fill="url(#paint17_linear_18_4512)"/>
<defs>
<linearGradient id="paint0_linear_18_4512" x1="41.9196" y1="9.58916" x2="16.7419" y2="42" gradientUnits="userSpaceOnUse">
<stop stop-color="#C1FFF7"/>
<stop offset="1" stop-color="#93E9DE"/>
</linearGradient>
<linearGradient id="paint1_linear_18_4512" x1="55.9723" y1="60.4154" x2="47.6095" y2="71.8682" gradientUnits="userSpaceOnUse">
<stop stop-color="#5A93EA"/>
<stop offset="1" stop-color="#3768B4"/>
</linearGradient>
<linearGradient id="paint2_linear_18_4512" x1="41.2102" y1="64.246" x2="34.6262" y2="73.694" gradientUnits="userSpaceOnUse">
<stop stop-color="#5A93EA"/>
<stop offset="1" stop-color="#3768B4"/>
</linearGradient>
<linearGradient id="paint3_linear_18_4512" x1="45.1931" y1="66.7726" x2="43.9594" y2="71.1925" gradientUnits="userSpaceOnUse">
<stop stop-color="#F9BB49"/>
<stop offset="1" stop-color="#F08523"/>
</linearGradient>
<linearGradient id="paint4_linear_18_4512" x1="30.2951" y1="75.74" x2="30.2951" y2="70.7" gradientUnits="userSpaceOnUse">
<stop stop-color="#E87E1E" stop-opacity="0"/>
<stop offset="1" stop-color="#F07023"/>
</linearGradient>
<linearGradient id="paint5_linear_18_4512" x1="78.7599" y1="2.38" x2="76.6677" y2="21.9795" gradientUnits="userSpaceOnUse">
<stop stop-color="#F9BB49"/>
<stop offset="1" stop-color="#F08523"/>
</linearGradient>
<linearGradient id="paint6_linear_18_4512" x1="40.7011" y1="20.4558" x2="32.7349" y2="6.99156" gradientUnits="userSpaceOnUse">
<stop stop-color="#D3FFFA"/>
<stop offset="1" stop-color="#B7FFF6"/>
</linearGradient>
<linearGradient id="paint7_linear_18_4512" x1="25.9849" y1="37.0352" x2="26.2572" y2="35.4962" gradientUnits="userSpaceOnUse">
<stop stop-color="#5A93EA"/>
<stop offset="1" stop-color="#3768B4"/>
</linearGradient>
<linearGradient id="paint8_linear_18_4512" x1="24.8373" y1="57.7082" x2="22.3235" y2="19.4525" gradientUnits="userSpaceOnUse">
<stop stop-color="#DB593D"/>
<stop offset="1" stop-color="#F88461"/>
</linearGradient>
<linearGradient id="paint9_linear_18_4512" x1="28.0941" y1="31.8905" x2="27.3734" y2="35.7379" gradientUnits="userSpaceOnUse">
<stop stop-color="#77EBFF"/>
<stop offset="1" stop-color="#4D86DE"/>
</linearGradient>
<linearGradient id="paint10_linear_18_4512" x1="35.4924" y1="69.9567" x2="34.463" y2="65.6883" gradientUnits="userSpaceOnUse">
<stop stop-color="#DB593D"/>
<stop offset="1" stop-color="#F88461"/>
</linearGradient>
<linearGradient id="paint11_linear_18_4512" x1="32.6046" y1="71.1578" x2="30.6009" y2="64.7988" gradientUnits="userSpaceOnUse">
<stop stop-color="#DB593D"/>
<stop offset="1" stop-color="#F88461"/>
</linearGradient>
<linearGradient id="paint12_linear_18_4512" x1="41.0755" y1="67.3674" x2="41.1342" y2="67.0976" gradientUnits="userSpaceOnUse">
<stop stop-color="#5A93EA"/>
<stop offset="1" stop-color="#3768B4"/>
</linearGradient>
<linearGradient id="paint13_linear_18_4512" x1="36.6538" y1="59.3354" x2="35.9869" y2="66.2183" gradientUnits="userSpaceOnUse">
<stop stop-color="#77EBFF"/>
<stop offset="1" stop-color="#4D86DE"/>
</linearGradient>
<linearGradient id="paint14_linear_18_4512" x1="42.3845" y1="67.401" x2="39.9469" y2="56.7957" gradientUnits="userSpaceOnUse">
<stop stop-color="#DB593D"/>
<stop offset="1" stop-color="#F88461"/>
</linearGradient>
<linearGradient id="paint15_linear_18_4512" x1="43.2879" y1="71.2033" x2="41.2842" y2="64.8443" gradientUnits="userSpaceOnUse">
<stop stop-color="#DB593D"/>
<stop offset="1" stop-color="#F88461"/>
</linearGradient>
<linearGradient id="paint16_linear_18_4512" x1="78.7599" y1="2.38" x2="76.6677" y2="21.9795" gradientUnits="userSpaceOnUse">
<stop stop-color="#F9BB49"/>
<stop offset="1" stop-color="#F08523"/>
</linearGradient>
<linearGradient id="paint17_linear_18_4512" x1="78.76" y1="6.44006" x2="77.2806" y2="20.2983" gradientUnits="userSpaceOnUse">
<stop stop-color="#F9BB49"/>
<stop offset="1" stop-color="#F08523"/>
</linearGradient>
</defs>
</svg>
