<svg width="257" height="269" viewBox="0 0 257 269" fill="none" xmlns="http://www.w3.org/2000/svg">
<path d="M135.12 34C153.722 33.9958 172.265 38.5419 187.735 48.8741C203.185 59.1935 214.729 74.465 221.568 91.7401C228.255 108.633 229.102 127.114 225.777 144.976C222.511 162.524 214.949 179.03 202.873 192.174C190.9 205.207 175.106 213.765 158.095 218.648C140.968 223.564 122.85 225.03 105.741 220.054C88.4481 215.024 76.9168 202.003 65 188.5C52.8722 174.758 40.0638 160.712 37.3693 142.583C34.6441 124.246 38.4892 105.546 46.6212 88.8871C54.6998 72.3377 67.4511 58.6044 83.1014 48.898C98.7461 39.1951 116.71 34.0042 135.12 34Z" fill="#F4F5F6"/>
<g filter="url(#filter0_d_18_5779)">
<g clip-path="url(#clip0_18_5779)">
<rect x="53.3047" y="34.7124" width="120" height="166" rx="24" transform="rotate(-15 53.3047 34.7124)" fill="#FCFCFD"/>
<path d="M146.844 135.607C168.991 129.673 182.133 106.909 176.199 84.7616C170.265 62.6147 147.501 49.4717 125.354 55.406C103.207 61.3402 90.0638 84.1045 95.9981 106.251C101.932 128.398 124.697 141.541 146.844 135.607Z" fill="url(#paint0_linear_18_5779)"/>
<path fill-rule="evenodd" clip-rule="evenodd" d="M94.6704 92.6518C99.2588 93.6909 103.902 91.9277 108.6 87.3621C116.394 79.7876 118.074 75.7385 128.766 80.1141C139.458 84.4898 144.29 76.4144 150.111 69.4666C152.643 66.4454 156.656 63.5396 160.989 62.2782C168.185 67.6608 173.693 75.4082 176.199 84.7615C178.124 91.9452 178.042 99.1938 176.296 105.912C139.664 111.679 114.445 115.414 100.639 117.117C98.6285 113.815 97.0493 110.174 95.9981 106.251C94.7768 101.694 94.3636 97.1097 94.6704 92.6518Z" fill="url(#paint1_linear_18_5779)"/>
<path fill-rule="evenodd" clip-rule="evenodd" d="M161.684 77.4062L148.002 71.8284L143.98 68.1285L140.322 72.4883L136.444 90.9836L165.886 85.3822L161.684 77.4062Z" fill="url(#paint2_linear_18_5779)"/>
<path opacity="0.1" d="M139.21 106.851C147.294 104.685 152.091 96.3756 149.925 88.2919C147.759 80.2083 139.45 75.4111 131.366 77.5771C123.283 79.7431 118.485 88.0521 120.651 96.1357C122.817 104.219 131.126 109.017 139.21 106.851Z" fill="url(#paint3_linear_18_5779)"/>
<path d="M137.818 101.923C143.207 100.479 146.405 94.9394 144.961 89.5503C143.517 84.1613 137.978 80.9631 132.589 82.4071C127.2 83.8511 124.001 89.3904 125.445 94.7795C126.889 100.169 132.429 103.367 137.818 101.923Z" fill="url(#paint4_linear_18_5779)"/>
<path fill-rule="evenodd" clip-rule="evenodd" d="M151.356 83.5361L144.543 75.9711L143.98 68.1285L140.322 72.4883L136.444 90.9836L165.886 85.3822L151.356 83.5361Z" fill="url(#paint5_linear_18_5779)"/>
<path fill-rule="evenodd" clip-rule="evenodd" d="M105.417 109.136C101.686 102.222 100.339 95.7931 101.376 89.8482L100.88 89.6048C98.7775 95.2887 98.8747 101.302 101.171 107.644L103.577 108.734L105.417 109.136Z" fill="url(#paint6_linear_18_5779)"/>
<path fill-rule="evenodd" clip-rule="evenodd" d="M105.417 109.136C101.686 102.222 100.339 95.793 101.376 89.8481C99.8177 95.4265 100.551 101.722 103.577 108.734C103.577 108.734 104.19 108.868 105.417 109.136Z" fill="url(#paint7_linear_18_5779)"/>
<path fill-rule="evenodd" clip-rule="evenodd" d="M100.953 89.9654C102.655 90.6961 103.534 91.5995 103.589 92.6757C104.246 92.1088 104.483 91.4829 104.299 90.7979C104.024 89.7703 102.528 88.9008 101.036 89.6949L100.999 89.8277L100.953 89.9654Z" fill="url(#paint8_linear_18_5779)"/>
<path fill-rule="evenodd" clip-rule="evenodd" d="M100.729 89.5504C102.618 87.6565 104.369 87.49 105.982 89.0509C104.542 88.8991 103.446 89.004 102.696 89.3658C101.946 89.7275 101.303 89.8525 100.766 89.7409L100.729 89.5504Z" fill="url(#paint9_linear_18_5779)"/>
<path fill-rule="evenodd" clip-rule="evenodd" d="M100.987 90.0173C100.715 88.5644 100.862 87.4852 101.427 86.7798C101.992 86.0744 103.055 85.944 104.614 86.3885C102.91 87.0428 101.932 87.8594 101.68 88.8383C101.428 89.8171 101.197 90.2102 100.987 90.0173Z" fill="url(#paint10_linear_18_5779)"/>
<path fill-rule="evenodd" clip-rule="evenodd" d="M100.787 89.6173C99.3541 88.1146 98.1927 87.8117 97.3028 88.7086C97.3331 87.6421 97.7763 87.0056 98.6323 86.7989C99.4884 86.5923 100.316 87.5176 101.115 89.5749L100.787 89.6173Z" fill="url(#paint11_linear_18_5779)"/>
<path fill-rule="evenodd" clip-rule="evenodd" d="M100.858 89.9138C99.1155 89.8274 98.151 90.5361 97.9643 92.0398C97.1825 91.0812 97.2058 90.199 98.0343 89.393C98.8628 88.587 99.9249 88.6849 101.221 89.6866L100.858 89.9138Z" fill="url(#paint12_linear_18_5779)"/>
<path d="M100.864 90.1914C101.085 90.132 101.217 89.9044 101.157 89.6829C101.098 89.4615 100.87 89.33 100.649 89.3894C100.427 89.4487 100.296 89.6764 100.355 89.8978C100.415 90.1193 100.642 90.2507 100.864 90.1914Z" fill="url(#paint13_linear_18_5779)"/>
<path d="M101.434 90.1816C101.656 90.1223 101.787 89.8946 101.728 89.6732C101.668 89.4517 101.441 89.3203 101.219 89.3796C100.998 89.439 100.866 89.6666 100.926 89.8881C100.985 90.1095 101.213 90.241 101.434 90.1816Z" fill="url(#paint14_linear_18_5779)"/>
<path fill-rule="evenodd" clip-rule="evenodd" d="M166.778 67.5247C171.121 72.2775 174.418 78.1139 176.199 84.7615C176.977 87.6655 177.428 90.5801 177.572 93.466C174.147 94.2763 171.992 94.4881 171.105 94.1014C169.4 93.358 157.411 92.6285 135.136 91.9129C142.464 86.4364 147.687 82.649 150.806 80.5509L158.811 69.7133L163.46 70.3989L166.778 67.5247Z" fill="url(#paint15_linear_18_5779)"/>
<path fill-rule="evenodd" clip-rule="evenodd" d="M167.582 68.4311C171.528 73.0123 174.53 78.5306 176.199 84.7616C176.977 87.6656 177.427 90.5802 177.572 93.4661C174.147 94.2764 171.992 94.4882 171.105 94.1015C169.4 93.3581 157.41 92.6286 135.136 91.913L154.204 83.1591L166.662 81.3078L164.209 75.0188L167.582 68.4311Z" fill="url(#paint16_linear_18_5779)"/>
<path fill-rule="evenodd" clip-rule="evenodd" d="M94.8432 100.193C104.608 95.7062 117.015 93.079 132.064 92.3116C116.96 102.056 106.465 110.292 100.58 117.02C98.5977 113.744 97.039 110.136 95.9981 106.252C95.4572 104.233 95.0748 102.209 94.8432 100.193Z" fill="url(#paint17_linear_18_5779)"/>
<path fill-rule="evenodd" clip-rule="evenodd" d="M119.981 108.437L118.117 108.164L115.641 107.244C112.908 101.078 112.392 95.0864 114.092 89.2697L114.605 89.4779C113.985 95.4807 115.777 101.8 119.981 108.437Z" fill="url(#paint18_linear_18_5779)"/>
<path fill-rule="evenodd" clip-rule="evenodd" d="M119.981 108.437C118.739 108.255 118.118 108.164 118.118 108.164C114.61 101.38 113.439 95.1515 114.605 89.478C113.985 95.4808 115.777 101.8 119.981 108.437Z" fill="url(#paint19_linear_18_5779)"/>
<path fill-rule="evenodd" clip-rule="evenodd" d="M114.191 89.6246L114.228 89.484L114.255 89.349C115.688 88.4527 117.241 89.2158 117.587 90.2216C117.818 90.8922 117.625 91.5331 117.01 92.1444C116.879 91.0747 115.94 90.2348 114.191 89.6246Z" fill="url(#paint20_linear_18_5779)"/>
<path fill-rule="evenodd" clip-rule="evenodd" d="M114.222 89.3029C115.433 86.9182 117.046 86.2187 119.064 87.2045C117.646 87.5053 116.637 87.9437 116.035 88.5195C115.434 89.0953 114.861 89.413 114.316 89.4726L114.222 89.3029Z" fill="url(#paint21_linear_18_5779)"/>
<path fill-rule="evenodd" clip-rule="evenodd" d="M114.206 89.5704C113.637 88.2058 113.556 87.1197 113.963 86.3122C114.369 85.5047 115.381 85.1562 116.999 85.2668C115.468 86.2612 114.681 87.2633 114.638 88.2732C114.595 89.283 114.451 89.7154 114.206 89.5704Z" fill="url(#paint22_linear_18_5779)"/>
<path fill-rule="evenodd" clip-rule="evenodd" d="M114.001 89.289C112.467 87.8899 111.287 87.6688 110.462 88.6255C110.418 87.5595 110.816 86.8936 111.655 86.6278C112.495 86.3619 113.385 87.2273 114.325 89.2239L114.001 89.289Z" fill="url(#paint23_linear_18_5779)"/>
<path fill-rule="evenodd" clip-rule="evenodd" d="M114.092 89.5796C112.348 89.615 111.436 90.3892 111.354 91.9023C110.508 91.0006 110.469 90.1188 111.239 89.257C112.01 88.3952 113.076 88.4188 114.439 89.3277L114.092 89.5796Z" fill="url(#paint24_linear_18_5779)"/>
<path d="M114.09 89.8647C114.311 89.8054 114.443 89.5777 114.384 89.3563C114.324 89.1348 114.097 89.0034 113.875 89.0627C113.654 89.1221 113.522 89.3497 113.582 89.5712C113.641 89.7926 113.869 89.9241 114.09 89.8647Z" fill="url(#paint25_linear_18_5779)"/>
<path d="M114.658 89.8152C114.88 89.7558 115.011 89.5282 114.952 89.3067C114.893 89.0852 114.665 88.9538 114.443 89.0132C114.222 89.0725 114.091 89.3001 114.15 89.5216C114.209 89.7431 114.437 89.8745 114.658 89.8152Z" fill="url(#paint26_linear_18_5779)"/>
<path fill-rule="evenodd" clip-rule="evenodd" d="M97.3707 110.471C97.8053 109.027 99.0283 107.884 101.04 107.042C106.366 104.813 103.222 98.8876 110.595 97.9343C117.968 96.981 126.365 93.4072 131.998 92.3464L120.808 107.573L98.9114 113.98C98.3483 112.844 97.8336 111.673 97.3707 110.471Z" fill="url(#paint27_linear_18_5779)"/>
<path fill-rule="evenodd" clip-rule="evenodd" d="M98.2549 112.591C118.88 93.1859 145.097 84.9476 176.909 87.8763C180.882 109.004 167.953 129.951 146.843 135.607C126.902 140.95 106.461 130.827 98.2549 112.591Z" fill="url(#paint28_linear_18_5779)"/>
<path fill-rule="evenodd" clip-rule="evenodd" d="M129.331 136.477C132.67 133.1 133.993 127.421 133.264 120.398C131.565 104.015 136.469 96.7218 157.426 97.0491C170.165 97.2481 176.749 94.7216 177.177 89.4695C180.227 110.048 167.422 130.093 146.844 135.607C140.94 137.189 134.992 137.415 129.331 136.477Z" fill="url(#paint29_linear_18_5779)"/>
<path fill-rule="evenodd" clip-rule="evenodd" d="M107.617 125.719C106.957 120.858 109.559 116.565 115.425 112.842C127.626 105.097 127.794 92.4187 140.705 94.5114C149.313 95.9065 155.403 96.7399 158.975 97.0115C142.982 96.802 134.806 101.102 134.447 109.912C133.998 120.951 135.251 132.361 130.643 136.673C121.979 135.521 113.917 131.647 107.617 125.719Z" fill="url(#paint30_linear_18_5779)"/>
<path fill-rule="evenodd" clip-rule="evenodd" d="M130.604 136.667C141.046 135.006 139.52 124.22 146.731 122.288C153.958 120.351 163.58 119.784 164.771 110.306C165.473 104.713 169.757 99.6678 177.623 95.1702C177.785 113.641 165.514 130.605 146.844 135.607C141.381 137.071 135.88 137.374 130.604 136.667L130.604 136.667Z" fill="url(#paint31_linear_18_5779)"/>
<path fill-rule="evenodd" clip-rule="evenodd" d="M101.085 77.6506C101.354 75.3645 102.381 74.1663 104.165 74.056C106.842 73.8905 106.699 76.3396 109.442 73.9875C112.184 71.6354 115.388 73.8182 115.388 73.8182C115.388 73.8182 110.62 75.0957 101.085 77.6506Z" fill="url(#paint32_linear_18_5779)"/>
<path fill-rule="evenodd" clip-rule="evenodd" d="M146.908 59.166C136.088 62.0651 130.678 63.5147 130.678 63.5147C130.678 63.5147 132.588 59.552 136.617 60.3074C140.647 61.0629 139.117 58.7371 141.842 57.381C143.658 56.477 145.347 57.072 146.908 59.166Z" fill="url(#paint33_linear_18_5779)"/>
</g>
</g>
<g filter="url(#filter1_d_18_5779)">
<rect x="48.5" y="36" width="128" height="160" rx="24" transform="rotate(-15 48.5 36)" fill="#FCFCFD"/>
<rect x="49.1124" y="36.3536" width="127" height="159" rx="23.5" transform="rotate(-15 49.1124 36.3536)" stroke="#F4F5F6"/>
</g>
<rect x="96.5" y="67" width="64" height="64" rx="32" fill="#8BC5E5"/>
<path fill-rule="evenodd" clip-rule="evenodd" d="M128.5 109C134.023 109 138.5 104.523 138.5 99C138.5 93.4772 134.023 89 128.5 89C122.977 89 118.5 93.4772 118.5 99C118.5 104.523 122.977 109 128.5 109ZM128.5 91C127.948 91 127.5 91.4477 127.5 92V93C125.843 93 124.5 94.3431 124.5 96V96.5585C124.5 97.8498 125.326 98.9962 126.551 99.4045L129.816 100.493C130.225 100.629 130.5 101.011 130.5 101.442V102C130.5 102.552 130.052 103 129.5 103H127.5C126.948 103 126.5 102.552 126.5 102C126.5 101.448 126.052 101 125.5 101C124.948 101 124.5 101.448 124.5 102C124.5 103.657 125.843 105 127.5 105V106C127.5 106.552 127.948 107 128.5 107C129.052 107 129.5 106.552 129.5 106V105C131.157 105 132.5 103.657 132.5 102V101.442C132.5 100.15 131.674 99.0038 130.449 98.5955L127.184 97.5072C126.775 97.3711 126.5 96.9889 126.5 96.5585V96C126.5 95.4477 126.948 95 127.5 95H129.5C130.052 95 130.5 95.4477 130.5 96C130.5 96.5523 130.948 97 131.5 97C132.052 97 132.5 96.5523 132.5 96C132.5 94.3431 131.157 93 129.5 93V92C129.5 91.4477 129.052 91 128.5 91Z" fill="#FCFCFD"/>
<rect width="12" height="12" rx="2" transform="matrix(-0.258819 0.965926 0.965926 0.258819 209.606 27)" fill="#DCB9F0"/>
<rect width="8" height="8" rx="2" transform="matrix(0.939693 -0.34202 -0.34202 -0.939693 14.2361 108.254)" fill="#9AC8FF"/>
<rect width="4" height="4" rx="2" transform="matrix(0.939693 -0.34202 -0.34202 -0.939693 239.868 165.127)" fill="#FFD166"/>
<defs>
<filter id="filter0_d_18_5779" x="37.3047" y="3.65405" width="190.875" height="271.402" filterUnits="userSpaceOnUse" color-interpolation-filters="sRGB">
<feFlood flood-opacity="0" result="BackgroundImageFix"/>
<feColorMatrix in="SourceAlpha" type="matrix" values="0 0 0 0 0 0 0 0 0 0 0 0 0 0 0 0 0 0 127 0" result="hardAlpha"/>
<feMorphology radius="48" operator="erode" in="SourceAlpha" result="effect1_dropShadow_18_5779"/>
<feOffset dy="64"/>
<feGaussianBlur stdDeviation="32"/>
<feColorMatrix type="matrix" values="0 0 0 0 0.0583333 0 0 0 0 0.0583333 0 0 0 0 0.0583333 0 0 0 0.08 0"/>
<feBlend mode="multiply" in2="BackgroundImageFix" result="effect1_dropShadow_18_5779"/>
<feBlend mode="normal" in="SourceGraphic" in2="effect1_dropShadow_18_5779" result="shape"/>
</filter>
<filter id="filter1_d_18_5779" x="40.5" y="2.87109" width="181.05" height="235.677" filterUnits="userSpaceOnUse" color-interpolation-filters="sRGB">
<feFlood flood-opacity="0" result="BackgroundImageFix"/>
<feColorMatrix in="SourceAlpha" type="matrix" values="0 0 0 0 0 0 0 0 0 0 0 0 0 0 0 0 0 0 127 0" result="hardAlpha"/>
<feMorphology radius="24" operator="erode" in="SourceAlpha" result="effect1_dropShadow_18_5779"/>
<feOffset dy="40"/>
<feGaussianBlur stdDeviation="16"/>
<feColorMatrix type="matrix" values="0 0 0 0 0.0583333 0 0 0 0 0.0583333 0 0 0 0 0.0583333 0 0 0 0.12 0"/>
<feBlend mode="multiply" in2="BackgroundImageFix" result="effect1_dropShadow_18_5779"/>
<feBlend mode="normal" in="SourceGraphic" in2="effect1_dropShadow_18_5779" result="shape"/>
</filter>
<linearGradient id="paint0_linear_18_5779" x1="115.944" y1="57.9273" x2="127.511" y2="132.405" gradientUnits="userSpaceOnUse">
<stop stop-color="#EEFFFD"/>
<stop offset="1" stop-color="#B7FFF6"/>
</linearGradient>
<linearGradient id="paint1_linear_18_5779" x1="124.176" y1="88.6495" x2="125.882" y2="91.9153" gradientUnits="userSpaceOnUse">
<stop stop-color="#EEFFFD"/>
<stop offset="1" stop-color="#B7FFF6"/>
</linearGradient>
<linearGradient id="paint2_linear_18_5779" x1="150.473" y1="73.2832" x2="149.114" y2="88.29" gradientUnits="userSpaceOnUse">
<stop stop-color="#30A0DE"/>
<stop offset="1" stop-color="#194383"/>
</linearGradient>
<linearGradient id="paint3_linear_18_5779" x1="131.366" y1="77.5771" x2="134.703" y2="98.8669" gradientUnits="userSpaceOnUse">
<stop stop-color="#F9BB49"/>
<stop offset="1" stop-color="#F08523"/>
</linearGradient>
<linearGradient id="paint4_linear_18_5779" x1="132.589" y1="82.4071" x2="134.813" y2="96.6003" gradientUnits="userSpaceOnUse">
<stop stop-color="#F9BB49"/>
<stop offset="1" stop-color="#F08523"/>
</linearGradient>
<linearGradient id="paint5_linear_18_5779" x1="146.616" y1="75.7677" x2="147.744" y2="90.4945" gradientUnits="userSpaceOnUse">
<stop stop-color="#30A0DE"/>
<stop offset="1" stop-color="#194383"/>
</linearGradient>
<linearGradient id="paint6_linear_18_5779" x1="102.436" y1="103.408" x2="97.379" y2="89.3717" gradientUnits="userSpaceOnUse">
<stop stop-color="#DB593D"/>
<stop offset="1" stop-color="#F88461"/>
</linearGradient>
<linearGradient id="paint7_linear_18_5779" x1="101.98" y1="98.3475" x2="100.665" y2="88.8751" gradientUnits="userSpaceOnUse">
<stop stop-color="#CD4C30"/>
<stop offset="1" stop-color="#F88461" stop-opacity="0"/>
</linearGradient>
<linearGradient id="paint8_linear_18_5779" x1="102.728" y1="93.458" x2="102.687" y2="90.0507" gradientUnits="userSpaceOnUse">
<stop stop-color="#13DBBF"/>
<stop offset="1" stop-color="#08B58B"/>
</linearGradient>
<linearGradient id="paint9_linear_18_5779" x1="101.602" y1="89.4648" x2="102.138" y2="88.4615" gradientUnits="userSpaceOnUse">
<stop stop-color="#13DBBF"/>
<stop offset="1" stop-color="#08B58B"/>
</linearGradient>
<linearGradient id="paint10_linear_18_5779" x1="104.947" y1="86.0859" x2="102.02" y2="89.0587" gradientUnits="userSpaceOnUse">
<stop stop-color="#13DBBF"/>
<stop offset="1" stop-color="#08B58B"/>
</linearGradient>
<linearGradient id="paint11_linear_18_5779" x1="98.4223" y1="90.6358" x2="98.5606" y2="87.6123" gradientUnits="userSpaceOnUse">
<stop stop-color="#13DBBF"/>
<stop offset="1" stop-color="#08B58B"/>
</linearGradient>
<linearGradient id="paint12_linear_18_5779" x1="101.868" y1="90.4579" x2="98.4059" y2="88.6159" gradientUnits="userSpaceOnUse">
<stop stop-color="#13DBBF"/>
<stop offset="1" stop-color="#08B58B"/>
</linearGradient>
<linearGradient id="paint13_linear_18_5779" x1="100.264" y1="89.7837" x2="101.029" y2="89.9416" gradientUnits="userSpaceOnUse">
<stop stop-color="#E3F35C"/>
<stop offset="1" stop-color="#C3E22F"/>
</linearGradient>
<linearGradient id="paint14_linear_18_5779" x1="100.834" y1="89.774" x2="101.599" y2="89.9318" gradientUnits="userSpaceOnUse">
<stop stop-color="#E3F35C"/>
<stop offset="1" stop-color="#C3E22F"/>
</linearGradient>
<linearGradient id="paint15_linear_18_5779" x1="156.87" y1="79.3837" x2="154.738" y2="95.702" gradientUnits="userSpaceOnUse">
<stop stop-color="#30A0DE"/>
<stop offset="1" stop-color="#194383"/>
</linearGradient>
<linearGradient id="paint16_linear_18_5779" x1="156.972" y1="83.1581" x2="155.039" y2="95.6544" gradientUnits="userSpaceOnUse">
<stop stop-color="#30A0DE"/>
<stop offset="1" stop-color="#194383"/>
</linearGradient>
<linearGradient id="paint17_linear_18_5779" x1="131.94" y1="96.6245" x2="114" y2="112.445" gradientUnits="userSpaceOnUse">
<stop stop-color="#68C179"/>
<stop offset="1" stop-color="#25A062"/>
</linearGradient>
<linearGradient id="paint18_linear_18_5779" x1="116.272" y1="102.905" x2="111.367" y2="88.8049" gradientUnits="userSpaceOnUse">
<stop stop-color="#DB593D"/>
<stop offset="1" stop-color="#F88461"/>
</linearGradient>
<linearGradient id="paint19_linear_18_5779" x1="115.753" y1="97.8438" x2="114.236" y2="88.367" gradientUnits="userSpaceOnUse">
<stop stop-color="#CD4C30"/>
<stop offset="1" stop-color="#F88461" stop-opacity="0"/>
</linearGradient>
<linearGradient id="paint20_linear_18_5779" x1="115.869" y1="92.9895" x2="115.878" y2="89.6304" gradientUnits="userSpaceOnUse">
<stop stop-color="#13DBBF"/>
<stop offset="1" stop-color="#08B58B"/>
</linearGradient>
<linearGradient id="paint21_linear_18_5779" x1="114.92" y1="88.5121" x2="115.393" y2="87.4805" gradientUnits="userSpaceOnUse">
<stop stop-color="#13DBBF"/>
<stop offset="1" stop-color="#08B58B"/>
</linearGradient>
<linearGradient id="paint22_linear_18_5779" x1="117.189" y1="84.6252" x2="114.506" y2="88.073" gradientUnits="userSpaceOnUse">
<stop stop-color="#13DBBF"/>
<stop offset="1" stop-color="#08B58B"/>
</linearGradient>
<linearGradient id="paint23_linear_18_5779" x1="111.468" y1="90.0501" x2="111.641" y2="87.4693" gradientUnits="userSpaceOnUse">
<stop stop-color="#13DBBF"/>
<stop offset="1" stop-color="#08B58B"/>
</linearGradient>
<linearGradient id="paint24_linear_18_5779" x1="115.168" y1="90.4183" x2="111.647" y2="88.4355" gradientUnits="userSpaceOnUse">
<stop stop-color="#13DBBF"/>
<stop offset="1" stop-color="#08B58B"/>
</linearGradient>
<linearGradient id="paint25_linear_18_5779" x1="113.49" y1="89.4571" x2="114.255" y2="89.6149" gradientUnits="userSpaceOnUse">
<stop stop-color="#E3F35C"/>
<stop offset="1" stop-color="#C3E22F"/>
</linearGradient>
<linearGradient id="paint26_linear_18_5779" x1="114.058" y1="89.4075" x2="114.824" y2="89.5654" gradientUnits="userSpaceOnUse">
<stop stop-color="#E3F35C"/>
<stop offset="1" stop-color="#C3E22F"/>
</linearGradient>
<linearGradient id="paint27_linear_18_5779" x1="130.323" y1="98.4069" x2="114.431" y2="107.306" gradientUnits="userSpaceOnUse">
<stop stop-color="#68C179"/>
<stop offset="1" stop-color="#25A062"/>
</linearGradient>
<linearGradient id="paint28_linear_18_5779" x1="141.728" y1="102.494" x2="137.275" y2="128.797" gradientUnits="userSpaceOnUse">
<stop stop-color="#77EBFF"/>
<stop offset="1" stop-color="#4D86DE"/>
</linearGradient>
<linearGradient id="paint29_linear_18_5779" x1="178.891" y1="100.499" x2="143.026" y2="152.953" gradientUnits="userSpaceOnUse">
<stop stop-color="#91F6FF"/>
<stop offset="1" stop-color="#4D86DE"/>
</linearGradient>
<linearGradient id="paint30_linear_18_5779" x1="137.257" y1="98.9419" x2="131.551" y2="138.636" gradientUnits="userSpaceOnUse">
<stop stop-color="#77EBFF"/>
<stop offset="1" stop-color="#4D86DE"/>
</linearGradient>
<linearGradient id="paint31_linear_18_5779" x1="162.171" y1="111.359" x2="139.03" y2="150.485" gradientUnits="userSpaceOnUse">
<stop stop-color="#91F6FF"/>
<stop offset="1" stop-color="#4D86DE"/>
</linearGradient>
<linearGradient id="paint32_linear_18_5779" x1="109.672" y1="73.8765" x2="101.461" y2="79.3662" gradientUnits="userSpaceOnUse">
<stop stop-color="#C1FFF7"/>
<stop offset="1" stop-color="#93E9DE"/>
</linearGradient>
<linearGradient id="paint33_linear_18_5779" x1="140.423" y1="59.2321" x2="131.105" y2="65.4615" gradientUnits="userSpaceOnUse">
<stop stop-color="#C1FFF7"/>
<stop offset="1" stop-color="#93E9DE"/>
</linearGradient>
<clipPath id="clip0_18_5779">
<rect x="53.3047" y="34.7124" width="120" height="166" rx="24" transform="rotate(-15 53.3047 34.7124)" fill="white"/>
</clipPath>
</defs>
</svg>
