<svg width="15" height="14" viewBox="0 0 15 14" fill="none" xmlns="http://www.w3.org/2000/svg">
<path d="M7.49992 0.333496C7.13173 0.333496 6.83325 0.631973 6.83325 1.00016V3.00016C6.83325 3.36835 7.13173 3.66683 7.49992 3.66683C7.86811 3.66683 8.16659 3.36835 8.16659 3.00016V1.00016C8.16659 0.631973 7.86811 0.333496 7.49992 0.333496Z" fill="#23262F"/>
<path d="M7.49992 10.3335C7.13173 10.3335 6.83325 10.632 6.83325 11.0002V13.0002C6.83325 13.3684 7.13173 13.6668 7.49992 13.6668C7.86811 13.6668 8.16659 13.3684 8.16659 13.0002V11.0002C8.16659 10.632 7.86811 10.3335 7.49992 10.3335Z" fill="#23262F"/>
<path d="M13.4999 6.3335C13.8681 6.3335 14.1666 6.63197 14.1666 7.00016C14.1666 7.36835 13.8681 7.66683 13.4999 7.66683H11.4999C11.1317 7.66683 10.8333 7.36835 10.8333 7.00016C10.8333 6.63197 11.1317 6.3335 11.4999 6.3335H13.4999Z" fill="#23262F"/>
<path d="M4.16659 7.00016C4.16659 6.63197 3.86811 6.3335 3.49992 6.3335H1.49992C1.13173 6.3335 0.833252 6.63197 0.833252 7.00016C0.833252 7.36835 1.13173 7.66683 1.49992 7.66683H3.49992C3.86811 7.66683 4.16659 7.36835 4.16659 7.00016Z" fill="#23262F"/>
<path d="M11.2712 2.28618C11.5315 2.02583 11.9536 2.02583 12.214 2.28618C12.4743 2.54653 12.4743 2.96864 12.214 3.22899L10.7998 4.64321C10.5394 4.90356 10.1173 4.90356 9.85698 4.64321C9.59663 4.38286 9.59663 3.96075 9.85698 3.7004L11.2712 2.28618Z" fill="#23262F"/>
<path d="M5.14287 9.35715C4.88252 9.0968 4.46041 9.0968 4.20006 9.35715L2.78585 10.7714C2.5255 11.0317 2.5255 11.4538 2.78585 11.7142C3.0462 11.9745 3.46831 11.9745 3.72866 11.7142L5.14287 10.3C5.40322 10.0396 5.40322 9.6175 5.14287 9.35715Z" fill="#23262F"/>
<path d="M12.214 10.7714C12.4743 11.0318 12.4743 11.4539 12.214 11.7142C11.9536 11.9746 11.5315 11.9746 11.2712 11.7142L9.85696 10.3C9.59661 10.0397 9.59661 9.61757 9.85696 9.35722C10.1173 9.09687 10.5394 9.09687 10.7998 9.35722L12.214 10.7714Z" fill="#23262F"/>
<path d="M5.14293 4.64312C5.40328 4.38277 5.40328 3.96066 5.14293 3.70031L3.72872 2.28609C3.46837 2.02574 3.04626 2.02574 2.78591 2.28609C2.52556 2.54644 2.52556 2.96855 2.78591 3.2289L4.20013 4.64312C4.46047 4.90347 4.88259 4.90347 5.14293 4.64312Z" fill="#23262F"/>
</svg>
