<svg width="94" height="32" viewBox="0 0 94 32" fill="none" xmlns="http://www.w3.org/2000/svg">
<g clip-path="url(#clip0_7_24088)">
<path d="M13.2473 1.0603C14.9507 0.0768632 17.0493 0.0768635 18.7527 1.0603L27.5619 6.14629C29.2652 7.12973 30.3145 8.9472 30.3145 10.9141V21.0861C30.3145 23.0529 29.2652 24.8704 27.5619 25.8539L18.7527 30.9398C17.0493 31.9233 14.9507 31.9233 13.2473 30.9398L4.43811 25.8539C2.73474 24.8704 1.68542 23.0529 1.68542 21.0861V10.9141C1.68542 8.9472 2.73474 7.12973 4.43811 6.14629L13.2473 1.0603Z" fill="url(#paint0_linear_7_24088)"/>
<mask id="mask0_7_24088" style="mask-type:alpha" maskUnits="userSpaceOnUse" x="1" y="0" width="30" height="32">
<path d="M13.2473 1.0603C14.9507 0.0768632 17.0493 0.0768635 18.7527 1.0603L27.5619 6.14629C29.2652 7.12973 30.3145 8.9472 30.3145 10.9141V21.0861C30.3145 23.0529 29.2652 24.8704 27.5619 25.8539L18.7527 30.9398C17.0493 31.9233 14.9507 31.9233 13.2473 30.9398L4.43811 25.8539C2.73474 24.8704 1.68542 23.0529 1.68542 21.0861V10.9141C1.68542 8.9472 2.73474 7.12973 4.43811 6.14629L13.2473 1.0603Z" fill="#83E1E1"/>
</mask>
<g mask="url(#mask0_7_24088)">
<path d="M6.28539 12.4726L-3.16131 18.3614L-11.3453 23.8611C-11.6497 24.0657 -11.8323 24.4083 -11.8323 24.775V50.8603C-11.8323 51.4684 -11.3393 51.9614 -10.7312 51.9614H43.7376C44.3457 51.9614 44.8387 51.4684 44.8387 50.8603V27.5607C44.8387 27.1835 44.6456 26.8326 44.327 26.6307L16.7542 9.15609C16.3188 8.88016 15.7502 8.94321 15.3859 9.30784L10.636 14.0613C10.206 14.4917 9.50836 14.4917 9.07829 14.0613L7.64674 12.6287C7.28456 12.2662 6.72022 12.2015 6.28539 12.4726Z" fill="url(#paint1_linear_7_24088)"/>
<path d="M6.62637 15L1 19.5333H5.30769C5.72967 19.5333 7.30037 21.8444 8.03297 23L9 17.5778L6.62637 15Z" fill="url(#paint2_linear_7_24088)"/>
<path d="M13.0193 17L16 12L28 19L25.2516 20.2192L18.5 20L12 26L15 19L13.0193 17Z" fill="url(#paint3_linear_7_24088)"/>
</g>
</g>
<path d="M47.8106 13.464H45.4826V24H42.0746V13.464H40.5626V10.704H42.0746V10.032C42.0746 8.4 42.5386 7.2 43.4666 6.432C44.3946 5.664 45.7946 5.304 47.6666 5.352V8.184C46.8506 8.168 46.2826 8.304 45.9626 8.592C45.6426 8.88 45.4826 9.4 45.4826 10.152V10.704H47.8106V13.464ZM53.348 6.24V24H49.988V6.24H53.348ZM69.0277 17.064C69.0277 17.544 68.9957 17.976 68.9317 18.36H59.2117C59.2917 19.32 59.6277 20.072 60.2197 20.616C60.8117 21.16 61.5397 21.432 62.4037 21.432C63.6517 21.432 64.5397 20.896 65.0677 19.824H68.6917C68.3077 21.104 67.5717 22.16 66.4837 22.992C65.3957 23.808 64.0597 24.216 62.4757 24.216C61.1957 24.216 60.0437 23.936 59.0197 23.376C58.0117 22.8 57.2197 21.992 56.6437 20.952C56.0837 19.912 55.8037 18.712 55.8037 17.352C55.8037 15.976 56.0837 14.768 56.6437 13.728C57.2037 12.688 57.9877 11.888 58.9957 11.328C60.0037 10.768 61.1637 10.488 62.4757 10.488C63.7397 10.488 64.8677 10.76 65.8597 11.304C66.8677 11.848 67.6437 12.624 68.1877 13.632C68.7477 14.624 69.0277 15.768 69.0277 17.064ZM65.5477 16.104C65.5317 15.24 65.2197 14.552 64.6117 14.04C64.0037 13.512 63.2597 13.248 62.3797 13.248C61.5477 13.248 60.8437 13.504 60.2677 14.016C59.7077 14.512 59.3637 15.208 59.2357 16.104H65.5477ZM83.8402 17.064C83.8402 17.544 83.8082 17.976 83.7442 18.36H74.0242C74.1042 19.32 74.4402 20.072 75.0322 20.616C75.6242 21.16 76.3522 21.432 77.2162 21.432C78.4642 21.432 79.3522 20.896 79.8802 19.824H83.5042C83.1202 21.104 82.3842 22.16 81.2962 22.992C80.2082 23.808 78.8722 24.216 77.2882 24.216C76.0082 24.216 74.8562 23.936 73.8322 23.376C72.8242 22.8 72.0322 21.992 71.4562 20.952C70.8962 19.912 70.6162 18.712 70.6162 17.352C70.6162 15.976 70.8962 14.768 71.4562 13.728C72.0162 12.688 72.8002 11.888 73.8082 11.328C74.8162 10.768 75.9762 10.488 77.2882 10.488C78.5522 10.488 79.6802 10.76 80.6722 11.304C81.6802 11.848 82.4562 12.624 83.0002 13.632C83.5602 14.624 83.8402 15.768 83.8402 17.064ZM80.3602 16.104C80.3442 15.24 80.0322 14.552 79.4242 14.04C78.8162 13.512 78.0722 13.248 77.1922 13.248C76.3602 13.248 75.6562 13.504 75.0802 14.016C74.5202 14.512 74.1762 15.208 74.0482 16.104H80.3602ZM90.2047 13.464V19.896C90.2047 20.344 90.3087 20.672 90.5167 20.88C90.7407 21.072 91.1087 21.168 91.6207 21.168H93.1807V24H91.0687C88.2367 24 86.8207 22.624 86.8207 19.872V13.464H85.2367V10.704H86.8207V7.416H90.2047V10.704H93.1807V13.464H90.2047Z" fill="#23262F"/>
<defs>
<linearGradient id="paint0_linear_7_24088" x1="16" y1="-0.528961" x2="16" y2="32.5291" gradientUnits="userSpaceOnUse">
<stop stop-color="#22AFFF"/>
<stop offset="1" stop-color="#1D41FF"/>
</linearGradient>
<linearGradient id="paint1_linear_7_24088" x1="16.5032" y1="8.68399" x2="16.5032" y2="51.9614" gradientUnits="userSpaceOnUse">
<stop stop-color="#1B3573"/>
<stop offset="1" stop-color="#131E39"/>
</linearGradient>
<linearGradient id="paint2_linear_7_24088" x1="8.5" y1="16" x2="-3" y2="33" gradientUnits="userSpaceOnUse">
<stop stop-color="#FCFCFD"/>
<stop offset="1" stop-color="white" stop-opacity="0"/>
</linearGradient>
<linearGradient id="paint3_linear_7_24088" x1="16.5" y1="12" x2="27" y2="50" gradientUnits="userSpaceOnUse">
<stop stop-color="white"/>
<stop offset="1" stop-color="#192E5F"/>
</linearGradient>
<clipPath id="clip0_7_24088">
<rect width="32" height="32" fill="white"/>
</clipPath>
</defs>
</svg>
